Coordinates
version=1
nRows=16
nColumns=22
inDegrees=yes

Units are S.I. units (second, meters, Newtons, ...)
If the header above contains a line with 'inDegrees', this indicates whether rotational values are in degrees (yes) or radians (no).

endheader
time	pelvis_tilt	pelvis_list	pelvis_rotation	pelvis_tx	pelvis_ty	pelvis_tz	hip_flexion_r	hip_adduction_r	hip_rotation_r	knee_angle_r	ankle_angle_r	subtalar_angle_r	hip_flexion_l	hip_adduction_l	hip_rotation_l	knee_angle_l	ankle_angle_l	subtalar_angle_l	lumbar_extension	lumbar_bending	lumbar_rotation
      1.24000000	     -3.26755043	     -2.94778801	     -4.55651912	     -1.25773424	      1.00946913	     -0.36313518	     -3.45383638	      8.86044363	     -5.30869063	     -7.20435764	     13.81801315	     -4.79552081	     27.07262498	     -3.35011693	      2.68488540	    -30.22861327	      9.48464385	      4.80346087	    -12.84673672	      3.25203757	      6.97870052
      1.25000000	     -3.13704220	     -2.85833142	     -4.55254878	     -1.25306827	      1.00887234	     -0.36246197	     -3.84935546	      8.77328629	     -5.24894361	     -7.27728460	     14.10433987	     -4.85763420	     27.27676799	     -2.98482807	      3.21874385	    -29.10811205	      8.92126941	      5.34046019	    -12.99165385	      3.17121236	      7.07327683
      1.26000000	     -3.01749982	     -2.78823799	     -4.56748459	     -1.24824785	      1.00819970	     -0.36178662	     -4.25745346	      8.70184782	     -5.18005067	     -7.33047704	     14.39392211	     -4.88710251	     27.44746494	     -2.64624244	      3.80578287	    -27.93598098	      8.39520987	      5.94043126	    -13.11596736	      3.11455728	      7.17178855
      1.27000000	     -2.91157220	     -2.73756178	     -4.60739266	     -1.24326757	      1.00744867	     -0.36109057	     -4.68142871	      8.64678642	     -5.09695706	     -7.35156366	     14.68206543	     -4.88678856	     27.58803907	     -2.34429811	      4.42903685	    -26.71995376	      7.92163267	      6.60014676	    -13.21523404	      3.07803437	      7.28671224
      1.28000000	     -2.82948162	     -2.69180738	     -4.67798704	     -1.23812285	      1.00661045	     -0.36036979	     -5.09892139	      8.59082933	     -5.03019574	     -7.35916042	     14.97310592	     -4.86950374	     27.70279327	     -2.07083350	      5.08391362	    -25.45525314	      7.48515759	      7.20345711	    -13.27564814	      3.04563695	      7.41889438
      1.29000000	     -2.75709730	     -2.68131255	     -4.78721600	     -1.23283007	      1.00570292	     -0.35957462	     -5.53841126	      8.56988014	     -4.88710308	     -7.33732373	     15.25217236	     -4.81995865	     27.78377627	     -1.86734155	      5.76445403	    -24.16383290	      7.13398999	      7.84736395	    -13.32073914	      3.04535189	      7.55754025
      1.30000000	     -2.70759479	     -2.67775268	     -4.93114789	     -1.22736957	      1.00471200	     -0.35873459	     -5.97958955	      8.55084873	     -4.73013204	     -7.28959119	     15.53274514	     -4.75438059	     27.84541949	     -1.70498603	      6.47007402	    -22.85235410	      6.81028376	      8.40388264	    -13.32753029	      3.04854808	      7.71847245
      1.31000000	     -2.67366382	     -2.68317795	     -5.11063002	     -1.22174465	      1.00365211	     -0.35783827	     -6.42498677	      8.53538987	     -4.54982252	     -7.22776954	     15.80785096	     -4.67627151	     27.88331786	     -1.59034620	      7.19070317	    -21.53338411	      6.50876917	      8.84992712	    -13.30663463	      3.05468103	      7.89054746
      1.32000000	     -2.64873940	     -2.70043223	     -5.32663688	     -1.21595319	      1.00253425	     -0.35687688	     -6.88157903	      8.52549052	     -4.33416923	     -7.15384709	     16.07600531	     -4.58103928	     27.89842542	     -1.53003952	      7.91069720	    -20.23042726	      6.22972725	      9.19203045	    -13.26746490	      3.06736741	      8.06823173
      1.33000000	     -2.63697650	     -2.72892101	     -5.57562715	     -1.20998775	      1.00135502	     -0.35584214	     -7.34544353	      8.52176004	     -4.09350938	     -7.06675956	     16.33213862	     -4.47921146	     27.90849489	     -1.52487121	      8.59981923	    -18.97667660	      5.95636070	      9.40648333	    -13.20377619	      3.08397009	      8.25791300
      1.34000000	     -2.61731163	     -2.77672243	     -5.86338569	     -1.20386267	      1.00015172	     -0.35472085	     -7.82577329	      8.52739169	     -3.81676812	     -6.99521676	     16.56953258	     -4.35479229	     27.89681557	     -1.58556784	      9.22672344	    -17.79349013	      5.73494840	      9.52640266	    -13.14716818	      3.11059566	      8.44721303
      1.35000000	     -2.57403319	     -2.83860222	     -6.18955970	     -1.19756722	      0.99895787	     -0.35348577	     -8.34248218	      8.53576328	     -3.51693717	     -6.93254490	     16.77935287	     -4.19009572	     27.85668362	     -1.70503250	      9.75444864	    -16.71311695	      5.57177729	      9.55300978	    -13.11773619	      3.13055116	      8.64948235
      1.36000000	     -2.55954183	     -2.93124997	     -6.54029972	     -1.19114208	      0.99768214	     -0.35220268	     -8.82973466	      8.56967849	     -3.16665153	     -6.89818589	     16.97999763	     -4.06173290	     27.86905388	     -1.88736261	     10.18033634	    -15.78845553	      5.43666864	      9.52744612	    -13.05733022	      3.18802669	      8.82616727
      1.37000000	     -2.45708028	     -3.01828162	     -6.93487855	     -1.18447242	      0.99653985	     -0.35080886	     -9.42685826	      8.57001961	     -2.82328427	     -6.86611336	     17.12150828	     -3.81828498	     27.77968812	     -2.09513610	     10.45153848	    -15.00228928	      5.43150578	      9.40188537	    -13.08930833	      3.20308648	      9.05543281
      1.38000000	     -2.38330719	     -3.14251368	     -7.33582121	     -1.17769335	      0.99532452	     -0.34941874	     -9.99054650	      8.60340211	     -2.41410176	     -6.86891105	     17.25516475	     -3.62603077	     27.75558703	     -2.34620200	     10.64201035	    -14.42572357	      5.43086358	      9.30053471	    -13.09561551	      3.26973948	      9.23915448
      1.39000000	     -2.22804387	     -3.24116618	     -7.75413325	     -1.17067027	      0.99423699	     -0.34799081	    -10.63998744	      8.58123327	     -2.04031818	     -6.89544945	     17.35430613	     -3.31086460	     27.63012846	     -2.57344689	     10.74034257	    -14.00095934	      5.53437411	      9.11183728	    -13.18240422	      3.28066573	      9.42184353
